<svg width="1600" height="900" viewBox="0 0 1600 900" xmlns="http://www.w3.org/2000/svg">
  <defs>
    <linearGradient id="bg" x1="0%" y1="0%" x2="100%" y2="100%">
      <stop offset="0%" stop-color="#edf6ff"/>
      <stop offset="100%" stop-color="#fff3e2"/>
    </linearGradient>
    <linearGradient id="panel" x1="0%" y1="0%" x2="100%" y2="100%">
      <stop offset="0%" stop-color="#ffffff"/>
      <stop offset="100%" stop-color="#f8fbff"/>
    </linearGradient>
    <filter id="shadow" x="-20%" y="-20%" width="140%" height="140%">
      <feDropShadow dx="0" dy="18" stdDeviation="24" flood-color="#17324d" flood-opacity="0.12"/>
    </filter>
  </defs>

  <rect width="1600" height="900" fill="url(#bg)"/>
  <circle cx="1320" cy="150" r="150" fill="#ffe2bf" opacity="0.65"/>
  <circle cx="220" cy="760" r="180" fill="#dcefff" opacity="0.85"/>

  <g filter="url(#shadow)">
    <rect x="95" y="90" width="1410" height="720" rx="36" fill="url(#panel)"/>
  </g>

  <rect x="140" y="132" width="1320" height="62" rx="18" fill="#f2f7fc"/>
  <text x="180" y="172" font-size="28" font-family="'Microsoft YaHei', 'PingFang SC', sans-serif" fill="#1c3144" font-weight="700">中国旅游地图工具</text>
  <text x="1070" y="171" font-size="22" font-family="'Microsoft YaHei', 'PingFang SC', sans-serif" fill="#5a748d">缩放查区域 · 多目的地交通查询</text>

  <g>
    <rect x="150" y="220" width="880" height="540" rx="28" fill="#eaf4fb" stroke="#bfd6ea"/>
    <path d="M300 345 L350 305 L435 292 L525 320 L575 285 L655 315 L720 300 L785 338 L855 330 L885 375 L870 455 L815 498 L785 565 L720 600 L658 592 L610 622 L525 612 L465 642 L385 620 L332 570 L275 575 L240 525 L220 458 L245 392 Z" fill="#dbeed7" stroke="#4b7d65" stroke-width="6"/>
    <path d="M470 335 L510 398 L565 385 L622 452 L705 430" fill="none" stroke="#2f7fd1" stroke-width="8" stroke-linecap="round"/>
    <path d="M470 335 L435 455 L512 520 L635 565" fill="none" stroke="#de6b48" stroke-width="8" stroke-linecap="round"/>
    <circle cx="470" cy="335" r="11" fill="#2f7fd1"/>
    <circle cx="705" cy="430" r="11" fill="#2f7fd1"/>
    <circle cx="435" cy="455" r="11" fill="#de6b48"/>
    <circle cx="635" cy="565" r="11" fill="#de6b48"/>
    <rect x="210" y="255" width="200" height="46" rx="14" fill="#ffffff" opacity="0.95"/>
    <text x="235" y="286" font-size="22" font-family="'Microsoft YaHei', 'PingFang SC', sans-serif" fill="#37546d">全国 / 省市区县分层</text>
  </g>

  <g>
    <rect x="1080" y="220" width="340" height="540" rx="28" fill="#fffdf9" stroke="#ecd9bf"/>
    <text x="1115" y="278" font-size="28" font-family="'Microsoft YaHei', 'PingFang SC', sans-serif" fill="#2b455c" font-weight="700">路线侧边栏</text>

    <rect x="1115" y="315" width="270" height="78" rx="18" fill="#f5f9ff" stroke="#d8e6f5"/>
    <text x="1140" y="347" font-size="20" font-family="'Microsoft YaHei', 'PingFang SC', sans-serif" fill="#6c8194">起点</text>
    <text x="1140" y="377" font-size="25" font-family="'Microsoft YaHei', 'PingFang SC', sans-serif" fill="#1b3548" font-weight="700">长沙</text>

    <rect x="1115" y="412" width="270" height="78" rx="18" fill="#fff8f1" stroke="#f0dec8"/>
    <text x="1140" y="444" font-size="20" font-family="'Microsoft YaHei', 'PingFang SC', sans-serif" fill="#8a7c69">终点</text>
    <text x="1140" y="474" font-size="25" font-family="'Microsoft YaHei', 'PingFang SC', sans-serif" fill="#4e3825" font-weight="700">桂林 / 贵阳 / 武汉</text>

    <rect x="1115" y="525" width="270" height="60" rx="16" fill="#d95f43"/>
    <text x="1186" y="563" font-size="24" font-family="'Microsoft YaHei', 'PingFang SC', sans-serif" fill="#ffffff" font-weight="700">查询公共交通</text>

    <rect x="1115" y="610" width="270" height="116" rx="18" fill="#ffffff" stroke="#e3e8ef"/>
    <text x="1140" y="646" font-size="20" font-family="'Microsoft YaHei', 'PingFang SC', sans-serif" fill="#6a7a88">自动整理结果</text>
    <text x="1140" y="681" font-size="23" font-family="'Microsoft YaHei', 'PingFang SC', sans-serif" fill="#20384d" font-weight="700">高铁 / 普通铁路 / 换乘</text>
    <text x="1140" y="714" font-size="19" font-family="'Microsoft YaHei', 'PingFang SC', sans-serif" fill="#5d7184">适合旅行规划与路线比较</text>
  </g>

  <text x="150" y="835" font-size="28" font-family="'Microsoft YaHei', 'PingFang SC', sans-serif" fill="#35556f">本地地图浏览 · 关键词定位 · 多终点行程对比</text>
</svg>
